<?xml version="1.0" encoding="UTF-8" standalone="no"?>
<svg width="118px" height="118px" viewBox="0 0 118 118" version="1.1" xmlns="http://www.w3.org/2000/svg" xmlns:xlink="http://www.w3.org/1999/xlink" xmlns:sketch="http://www.bohemiancoding.com/sketch/ns">
    <!-- Generator: Sketch 3.3.2 (12043) - http://www.bohemiancoding.com/sketch -->
    <title>download + Rectangle 1 + Triangle 1</title>
    <desc>Created with Sketch.</desc>
    <defs></defs>
    <g id="Page-1" stroke="none" stroke-width="1" fill="none" fill-rule="evenodd" sketch:type="MSPage">
        <g id="Artboard-1" sketch:type="MSArtboardGroup">
            <g id="download-+-Rectangle-1-+-Triangle-1" sketch:type="MSLayerGroup" transform="translate(1.000000, 0.000000)">
                <g id="download" stroke="#979797" fill="#2A2F35" sketch:type="MSShapeGroup">
                    <g id="Group">
                        <path d="M112,117.7 L5,117.7 C2.2,117.7 0,115.5 0,112.7 L0,5.7 C0,2.9 2.2,0.7 5,0.7 L112,0.7 C114.8,0.7 117,2.9 117,5.7 L117,112.7 C117,115.5 114.8,117.7 112,117.7 L112,117.7 Z" id="Shape"></path>
                    </g>
                </g>
                <path d="M29,24 L89,17.5 C89,17.5 92.6556352,27.4834512 89,30 C80.2090634,36.0517037 59,45.5020409 59,52.5 C59,59.8359842 31.4412203,78.7490617 40,85.5 C40.5517777,85.9352276 41.9476729,83.5401845 44,83.5 C55.1639867,83.2814093 84.4221703,79.8543541 86.5,82 C87.8918893,83.4373178 89.3618847,87.0580634 89,90 C88.6527441,92.8230118 89,95 89,95 C89,95 88.9350164,97.7957512 86.5,99.5 C84.3378187,101.013294 77.3322396,101.454605 76.5,101.5 C59.9361621,102.403482 29,95 29,95 L29,24 Z" id="Rectangle-1" stroke="#979797" fill="#D8D8D8" sketch:type="MSShapeGroup"></path>
                <path d="M68.1829203,58.0707806 L76.7713774,60.0667831 C76.7713774,60.0667831 69.9016539,61.3391553 66.9966624,61.3391553 C66.025293,61.3391553 63.4393504,60.0667831 63.4393504,60.0667831 L68.1829203,58.0707806 Z" id="Triangle-1" fill="#D8D8D8" sketch:type="MSShapeGroup" transform="translate(70.105364, 59.704968) rotate(-202.000000) translate(-70.105364, -59.704968) "></path>
            </g>
        </g>
    </g>
</svg>