<?xml version="1.0" encoding="UTF-8" standalone="no"?>
<svg viewBox="0 0 910 917" version="1.1" xmlns="http://www.w3.org/2000/svg" xmlns:xlink="http://www.w3.org/1999/xlink" xmlns:sketch="http://www.bohemiancoding.com/sketch/ns">

    <defs>
        <path id="path-1" d="M73.3048471,106.371094 C73.3048471,83.1579437 92.9193304,84.1717034 97.455231,83.1579457 C215.998745,56.6638909 448.698807,0.35546875 448.698807,0.35546875 C448.698807,0.35546875 463.829618,2.4514682 468.108514,7.6484375 C473.421644,14.1015448 468.108511,23.9296874 468.108514,23.9296875 C468.108519,23.9296876 330.367091,213.933594 330.367091,213.933594 C330.367091,213.933594 436.948014,267.624727 489.601156,297.488281 C490.717904,298.121673 499.301514,306.629337 498.991823,312.681641 C498.717212,318.048399 489.601156,321.074219 489.601156,321.074219 L0.91796875,625.007812 L73.3048471,106.371094 Z"></path>
    </defs>
    <g id="Page-1" stroke="none" stroke-width="1" fill="none" fill-rule="evenodd" sketch:type="MSPage">
        <g id="Rectangle-1-+-Path-5-+-Path-3-Copy-2-+-Path-3-Copy-3-+-Group" sketch:type="MSLayerGroup">
            <path d="M0,892 L0,47.7748498 C0,29.7648356 21.515625,15.6231671 21.515625,15.6231671 C21.515625,15.6231671 41.7574449,0 62.6361674,0 L880.5,0 C890.28125,0 902,11.5884615 902,11.5884615 C902,11.5884615 910,23.0299679 910,34.7653846 L910,894 C910,901.536458 902,911 902,911 C902,911 894.90625,917 887.5,917 L23,917 C15.4140625,917 6,911 6,911 C6,911 0,900.283854 0,892 Z" id="Rectangle-1" stroke="#979797" fill="#2D2D2D" sketch:type="MSShapeGroup"></path>
            <g id="Path-5-+-Path-3-Copy-2-+-Path-3-Copy-3" transform="translate(285.000000, 49.000000)" sketch:type="MSShapeGroup">
                <path d="M42.3058432,209.162104 L55.0155105,119.222918 L456.615409,2.32916126 C456.615409,2.32916126 469.964733,-2.14860774 479.703899,2.32916126 C489.443066,6.80693026 484.765392,33.4776407 484.765392,33.4776407 L334.416302,339.337241 L440.251568,421.668235 C440.251568,421.668235 448.323848,437.494854 447.260082,445.556327 C446.399471,452.078248 434.478435,465.418418 434.478435,465.418418 L15.6071466,816.12371 C15.6071466,816.12371 6.16314152,819.829764 2.28578373,816.12371 C-0.651635832,813.316066 1.56000089,803.548371 2.28578374,800.2116 C11.6964485,756.946281 46.7556261,667.997485 46.7556261,667.997485 L42.3058432,209.162104 Z" id="Path-5" fill="#514A4A"></path>
                <path d="M141,179.655873 L144.943689,296 L308.235737,173.061856 C308.235737,173.061856 344.582344,145.312915 315.778573,145.312915 C286.974801,145.312915 141,179.655873 141,179.655873 Z" id="Path-3-Copy-2" fill="#2D2D2D"></path>
                <path d="M141,443.397902 L144.943689,559.742029 L308.235737,436.803884 C308.235737,436.803884 344.582344,409.054943 315.778573,409.054943 C286.974801,409.054943 141,443.397902 141,443.397902 Z" id="Path-3-Copy-3" fill="#7A7676"></path>
            </g>
            <g id="Group" transform="translate(150.000000, 196.000000)">
                <path id="Path-1" stroke="#979797" sketch:type="MSShapeGroup" d=""></path>
                <g id="Path-2">
                    <use fill="#FBFBFB" fill-rule="evenodd" sketch:type="MSShapeGroup" xlink:href="#path-1"></use>
                    <use fill="none" xlink:href="#path-1"></use>
                </g>
                <path d="M203.125,116.160156 L206.03125,201.898438 L326.367188,111.300781 C326.367188,111.300781 353.152344,90.8515625 331.925781,90.8515625 C310.699219,90.8515625 203.125,116.160156 203.125,116.160156 Z" id="Path-3" fill="#2D2D2D" sketch:type="MSShapeGroup"></path>
                <path d="M192.125,337.990234 L195.03125,423.728516 L315.367188,333.130859 C315.367188,333.130859 342.152344,312.681641 320.925781,312.681641 C299.699219,312.681641 192.125,337.990234 192.125,337.990234 Z" id="Path-3-Copy" fill="#2D2D2D" sketch:type="MSShapeGroup"></path>
            </g>
        </g>
    </g>
</svg>